<svg width="24" height="24" viewBox="0 0 24 24" fill="none" xmlns="http://www.w3.org/2000/svg">
<path fill-rule="evenodd" clip-rule="evenodd" d="M18 10.5C18 14.6421 14.6421 18 10.5 18C6.35786 18 3 14.6421 3 10.5C3 6.35786 6.35786 3 10.5 3C14.6421 3 18 6.35786 18 10.5ZM16.8002 18.9006C15.0453 20.2188 12.8639 21 10.5 21C4.70101 21 0 16.299 0 10.5C0 4.70101 4.70101 0 10.5 0C16.299 0 21 4.70101 21 10.5C21 12.8639 20.2188 15.0453 18.9006 16.8002C18.9564 16.8422 19.0099 16.8886 19.0607 16.9393L23.5607 21.4393C24.1464 22.0251 24.1464 22.9749 23.5607 23.5607C22.9749 24.1464 22.0251 24.1464 21.4393 23.5607L16.9393 19.0607C16.8886 19.0099 16.8422 18.9564 16.8002 18.9006Z" fill="white" fill-opacity="0.64"/>
</svg>
